<?xml version="1.0" encoding="utf-8"?>
<!-- Generator: Adobe Illustrator 16.0.4, SVG Export Plug-In . SVG Version: 6.00 Build 0)  -->
<!DOCTYPE svg PUBLIC "-//W3C//DTD SVG 1.1//EN" "http://www.w3.org/Graphics/SVG/1.1/DTD/svg11.dtd">
<svg version="1.1" id="Ebene_1" xmlns="http://www.w3.org/2000/svg" xmlns:xlink="http://www.w3.org/1999/xlink" x="0px" y="0px"
	 width="278.333px" height="187.5px" viewBox="0 0 278.333 187.5" enable-background="new 0 0 278.333 187.5" xml:space="preserve">
<g>
	<defs>
		<path id="SVGID_1_" d="M6.547,32.765c0.907,14.797,10.334,19.867,18.07,31.213c8.215,12.047,10.405,19.714,9.858,32.857
			C34.04,107.287,24.39,114.22,14.92,127.159c-9.469,12.937-22.913,33.005-7.623,40.214c10.541,4.97,18.062-4.334,27.226-13.639
			c9.703-9.853,21.249-19.704,40.171-12.61c12.523,4.695,23.477,24.506,33.592,25.482c10.715,1.737,16.229-11.938,16.218-18.533
			c-0.033-15.867-18.021-36.209-16.102-47.405c1.448-23.747,29.102-22.864,34.025-45.452c4.923-22.587-11.264-38.47-42.318-13.355
			c-31.055,25.115-44.307,2.026-57.338-14.769c-6.086-7.845-13.157-10.995-19.427-10.996C13.722,16.094,5.979,23.512,6.547,32.765"
			/>
	</defs>
	<clipPath id="SVGID_2_">
		<use xlink:href="#SVGID_1_"  overflow="visible"/>
	</clipPath>
	
		<radialGradient id="SVGID_3_" cx="-282.6665" cy="390.8335" r="1" gradientTransform="matrix(73.9375 0 0 -73.9375 20971.4883 28989.6484)" gradientUnits="userSpaceOnUse">
		<stop  offset="0" style="stop-color:#F39100"/>
		<stop  offset="0.005" style="stop-color:#F39100"/>
		<stop  offset="0.4542" style="stop-color:#F28B00"/>
		<stop  offset="1" style="stop-color:#EF7C00"/>
	</radialGradient>
	<rect x="-7.993" y="16.095" clip-path="url(#SVGID_2_)" fill="url(#SVGID_3_)" width="155.343" height="156.248"/>
</g>
<g>
	<defs>
		<rect id="SVGID_4_" x="-282.667" y="-204.442" width="841.89" height="595.276"/>
	</defs>
	<clipPath id="SVGID_5_">
		<use xlink:href="#SVGID_4_"  overflow="visible"/>
	</clipPath>
	<g opacity="0.35" clip-path="url(#SVGID_5_)">
		<g>
			<defs>
				<rect id="SVGID_6_" x="78.015" y="32.48" width="61.25" height="23.747"/>
			</defs>
			<clipPath id="SVGID_7_">
				<use xlink:href="#SVGID_6_"  overflow="visible"/>
			</clipPath>
			<path clip-path="url(#SVGID_7_)" fill="#FFFFFF" d="M78.015,56.228c0,0,11.375-1.634,26.164-13.374
				c14.789-11.738,24.441-11.168,29.524-9.416c4.352,1.501,7.465,9.214,4.215,10.21c-2.666-4.175,3.585-9.645-21.701-3.842
				C103.568,45.02,97.575,54.342,78.015,56.228"/>
		</g>
	</g>
	<g opacity="0.35" clip-path="url(#SVGID_5_)">
		<g>
			<defs>
				<rect id="SVGID_8_" x="97.248" y="105.353" width="22.038" height="43.108"/>
			</defs>
			<clipPath id="SVGID_9_">
				<use xlink:href="#SVGID_8_"  overflow="visible"/>
			</clipPath>
			<path clip-path="url(#SVGID_9_)" fill="#FFFFFF" d="M97.248,105.354c0,0,4.131,7.824,9.605,14.151
				c5.477,6.329,14.967,21.364,11.802,26.982c-2.537,4.505-3.178,0.866-4.36-6.546C112.77,130.382,102.874,119.052,97.248,105.354"
				/>
		</g>
	</g>
	<polygon clip-path="url(#SVGID_5_)" fill="#FFFFFF" points="132.292,95.98 132.292,35.912 12.271,35.912 12.271,155.521 
		132.292,155.521 132.292,130.349 129.382,128.515 129.382,152.611 15.182,152.611 15.182,38.822 129.382,38.822 129.382,94.453 	
		"/>
	<path clip-path="url(#SVGID_5_)" fill="#F39100" d="M156.421,181.363c0.432,0,0.783-0.352,0.783-0.782
		c0-0.432-0.352-0.782-0.783-0.782h-6.938v-3.855h6.938c0.425,0,0.783-0.358,0.783-0.783c0-0.44-0.352-0.797-0.783-0.797h-7.733
		c-0.432,0-0.783,0.356-0.783,0.797v11.543c0,0.439,0.352,0.797,0.783,0.797h7.733c0.432,0,0.783-0.357,0.783-0.797
		c0-0.425-0.358-0.783-0.783-0.783h-6.938v-4.557H156.421z"/>
	<path clip-path="url(#SVGID_5_)" fill="#F39100" d="M178.99,180.331c0.686-1.292,0.743-3.387-0.345-4.652
		c-1.022-1.215-2.415-1.315-3.872-1.315h-3.749c-0.431,0-0.781,0.357-0.781,0.797v11.542c0,0.439,0.351,0.798,0.781,0.798
		c0.44,0,0.799-0.358,0.799-0.798v-4.474h3.055c1.274,0,2.873,2.385,3.056,4.562c0.045,0.405,0.387,0.71,0.796,0.71h0.059
		l0.014-0.001c0.435-0.045,0.752-0.435,0.71-0.865c-0.167-1.842-1.019-3.659-2.254-4.853
		C178.068,181.447,178.65,180.96,178.99,180.331 M177.589,179.578c-0.421,0.791-1.78,1.07-2.816,1.07h-2.95v-4.705h2.95
		c1.351,0,2.134,0.116,2.67,0.761C177.99,177.333,178.062,178.726,177.589,179.578"/>
	<path clip-path="url(#SVGID_5_)" fill="#F39100" d="M189.441,175.571c-0.785-0.777-2.053-1.188-3.466-1.194
		c-1.429,0.019-2.724,0.489-3.464,1.259c-0.799,0.833-1.148,1.988-1.1,3.631v3.769c0.03,1.352,0.422,2.42,1.162,3.179
		c0.818,0.834,2.026,1.257,3.591,1.257c1.312,0,2.446-0.442,3.278-1.28c0.814-0.82,1.276-1.983,1.268-3.191v-3.732
		C190.71,177.659,190.284,176.415,189.441,175.571 M189.146,179.266v3.732c0,1.438-1.024,2.892-2.981,2.892
		c-1.13,0-1.962-0.267-2.474-0.79c-0.436-0.437-0.672-1.136-0.7-2.071v-3.786c-0.041-1.201,0.168-1.995,0.659-2.499
		c0.441-0.46,1.368-0.767,2.36-0.78h0.069c0.948,0,1.785,0.269,2.246,0.725C188.87,177.232,189.146,178.099,189.146,179.266"/>
	<path clip-path="url(#SVGID_5_)" fill="#F39100" d="M167.591,174.363c-0.44,0-0.799,0.356-0.799,0.798v7.873
		c0.008,0.78-0.29,1.533-0.815,2.063c-0.532,0.537-1.265,0.822-2.119,0.822c-2.171,0-3.164-0.894-3.22-2.889v-7.87
		c0-0.447-0.344-0.798-0.783-0.798c-0.438,0-0.781,0.351-0.781,0.798v7.89c0.062,2.869,1.751,4.449,4.755,4.449
		c2.983,0,4.544-2.248,4.544-4.469v-7.87C168.373,174.719,168.022,174.363,167.591,174.363"/>
	<path clip-path="url(#SVGID_5_)" fill="#F39100" d="M200.997,175.676c-1.023-1.213-2.416-1.313-3.872-1.313h-3.747
		c-0.432,0-0.783,0.357-0.783,0.797v11.542c0,0.439,0.352,0.798,0.783,0.798c0.439,0,0.797-0.358,0.797-0.798v-4.474h2.934
		c1.545-0.003,3.465-0.474,4.234-1.897C202.027,179.039,202.085,176.945,200.997,175.676 M199.957,179.577
		c-0.383,0.702-1.688,1.072-2.753,1.072h-0.063h-2.966v-4.706h2.95c1.351,0,2.135,0.116,2.671,0.762
		C200.338,177.328,200.417,178.722,199.957,179.577"/>
	<path clip-path="url(#SVGID_5_)" fill="#F39100" d="M253.88,174.363c-0.44,0-0.799,0.356-0.799,0.798v7.873
		c0.008,0.78-0.29,1.533-0.815,2.063c-0.532,0.537-1.265,0.822-2.119,0.822c-2.171,0-3.164-0.894-3.22-2.889v-7.87
		c0-0.447-0.344-0.798-0.783-0.798c-0.438,0-0.781,0.351-0.781,0.798v7.89c0.062,2.869,1.751,4.449,4.755,4.449
		c2.983,0,4.544-2.248,4.544-4.469v-7.87C254.662,174.719,254.311,174.363,253.88,174.363"/>
	<path clip-path="url(#SVGID_5_)" fill="#F39100" d="M265.047,185.919h-6.936v-10.759c0-0.44-0.358-0.799-0.799-0.799
		c-0.431,0-0.781,0.358-0.781,0.799v11.542c0,0.439,0.351,0.797,0.781,0.797h7.734c0.432,0,0.783-0.357,0.783-0.797
		C265.831,186.277,265.472,185.919,265.047,185.919"/>
	<path clip-path="url(#SVGID_5_)" fill="#F39100" d="M206.661,174.899l-0.003-0.005c-0.112-0.313-0.422-0.532-0.753-0.532
		c-0.333,0-0.643,0.22-0.756,0.536l-3.849,11.548c-0.075,0.205-0.064,0.424,0.029,0.615c0.094,0.19,0.26,0.332,0.463,0.396
		c0.396,0.127,0.842-0.085,1-0.494l1.09-3.256h4.044l1.09,3.256c0.108,0.325,0.42,0.532,0.756,0.532c0.08,0,0.162-0.013,0.243-0.037
		c0.207-0.065,0.372-0.207,0.465-0.398c0.094-0.191,0.104-0.41,0.031-0.605L206.661,174.899z M207.409,182.127h-3.008l1.504-4.488
		L207.409,182.127z"/>
	<path clip-path="url(#SVGID_5_)" fill="#F39100" d="M276.216,181.363c0.432,0,0.783-0.352,0.783-0.782
		c0-0.432-0.352-0.782-0.783-0.782h-6.938v-3.855h6.938c0.425,0,0.783-0.358,0.783-0.783c0-0.44-0.352-0.797-0.783-0.797h-7.734
		c-0.431,0-0.781,0.356-0.781,0.797v11.543c0,0.439,0.351,0.797,0.781,0.797h7.734c0.432,0,0.783-0.357,0.783-0.797
		c0-0.425-0.358-0.783-0.783-0.783h-6.938v-4.557H276.216z"/>
	<path clip-path="url(#SVGID_5_)" fill="#F39100" d="M242.711,174.363c-0.439,0-0.797,0.356-0.797,0.798v4.638h-6.14v-4.638
		c0-0.441-0.358-0.798-0.798-0.798c-0.432,0-0.783,0.356-0.783,0.798v11.541c0,0.44,0.352,0.798,0.783,0.798
		c0.439,0,0.798-0.357,0.798-0.798v-5.339h6.14v5.339c0,0.44,0.357,0.798,0.797,0.798c0.432,0,0.782-0.357,0.782-0.798v-11.541
		C243.494,174.719,243.143,174.363,242.711,174.363"/>
	<path clip-path="url(#SVGID_5_)" fill="#F39100" d="M216.483,180.349c-1.355-0.027-2.285-0.146-2.732-0.649
		c-0.278-0.313-0.381-0.799-0.316-1.463c0.276-1.545,1.314-2.265,3.296-2.265c1.159,0.008,1.835,0.465,2.197,0.847
		c0.39,0.409,0.609,0.935,0.589,1.403c-0.022,0.433,0.315,0.804,0.783,0.827c0.425,0,0.774-0.331,0.797-0.758
		c0.042-0.9-0.328-1.835-1.017-2.56c-0.813-0.857-2.002-1.332-3.379-1.34c-3.303,0-4.665,1.96-4.828,3.638
		c-0.121,1.176,0.095,2.059,0.659,2.696c0.711,0.801,1.922,1.172,3.926,1.205c1.005,0.019,2.229,0.113,2.773,0.688
		c0.216,0.229,0.315,0.521,0.301,0.897c-0.046,1.772-1.529,2.402-2.815,2.402c-1.953,0-2.991-0.719-3.266-2.257
		c-0.031-0.205-0.14-0.385-0.307-0.507c-0.172-0.126-0.393-0.177-0.605-0.144c-0.419,0.066-0.716,0.483-0.647,0.915
		c0.412,2.305,2.126,3.572,4.856,3.572c2.535-0.016,4.289-1.599,4.364-3.938c0.025-0.813-0.208-1.484-0.695-1.997
		C219.677,180.785,218.391,180.387,216.483,180.349"/>
	<path clip-path="url(#SVGID_5_)" fill="#F39100" d="M232.31,182.956c0-0.434-0.352-0.784-0.783-0.784
		c-0.447,0-0.797,0.345-0.797,0.784l0.002,0.249c0.01,0.651,0.018,1.167-0.59,1.798c-0.292,0.313-0.967,0.843-2.204,0.843
		c-1.172,0.025-2.056-0.259-2.604-0.834c-0.522-0.524-0.772-1.334-0.744-2.415v-3.115h0.011l-0.011-0.27
		c-0.042-1.079,0.209-1.898,0.749-2.439c0.523-0.55,1.39-0.829,2.604-0.829c1.172,0,1.852,0.461,2.216,0.847
		c0.385,0.407,0.598,0.926,0.57,1.387c-0.012,0.207,0.059,0.407,0.2,0.564c0.144,0.157,0.34,0.252,0.555,0.264
		c0.014,0.001,0.027,0.001,0.04,0.001c0.421,0,0.764-0.325,0.785-0.757c0.042-0.888-0.341-1.846-1.023-2.562
		c-0.815-0.854-2.003-1.324-3.372-1.324c-1.63,0-2.879,0.438-3.714,1.303c-0.837,0.87-1.237,2.074-1.19,3.57v3.772
		c0.046,1.306,0.447,2.354,1.194,3.117c0.849,0.862,2.107,1.3,3.739,1.3c1.787,0,2.868-0.833,3.355-1.334
		c1.032-1.093,1.021-2.163,1.013-2.945L232.31,182.956z"/>
	<path clip-path="url(#SVGID_5_)" fill="#FFFFFF" d="M152.56,159.445c-1.354-0.027-2.284-0.146-2.731-0.649
		c-0.278-0.313-0.38-0.799-0.315-1.463c0.275-1.544,1.313-2.264,3.294-2.264c1.16,0.008,1.836,0.464,2.198,0.846
		c0.39,0.409,0.609,0.934,0.589,1.403c-0.022,0.434,0.315,0.804,0.783,0.827c0.424,0,0.774-0.331,0.798-0.758
		c0.041-0.901-0.329-1.836-1.019-2.56c-0.812-0.857-2.001-1.332-3.377-1.34c-3.302,0-4.665,1.96-4.829,3.638
		c-0.121,1.176,0.095,2.059,0.659,2.696c0.711,0.801,1.922,1.172,3.926,1.205c1.007,0.02,2.232,0.115,2.774,0.688
		c0.216,0.228,0.313,0.521,0.3,0.896c-0.046,1.772-1.528,2.402-2.815,2.402c-1.953,0-2.991-0.719-3.267-2.257
		c-0.03-0.204-0.14-0.384-0.306-0.506c-0.171-0.125-0.39-0.18-0.605-0.145c-0.42,0.066-0.717,0.483-0.648,0.916
		c0.412,2.304,2.126,3.571,4.858,3.571c2.535-0.016,4.288-1.599,4.362-3.938c0.026-0.813-0.207-1.484-0.693-1.997
		C155.756,159.88,154.469,159.483,152.56,159.445"/>
	<path clip-path="url(#SVGID_5_)" fill="#FFFFFF" d="M167.118,154.667c-0.785-0.778-2.055-1.223-3.467-1.195
		c-1.428,0.019-2.722,0.489-3.461,1.259c-0.798,0.83-1.148,1.985-1.102,3.63v3.77c0.03,1.352,0.423,2.42,1.162,3.179
		c0.818,0.834,2.027,1.257,3.594,1.257c1.312,0,2.444-0.442,3.276-1.28c0.814-0.821,1.275-1.984,1.267-3.191v-3.733
		C168.387,156.753,167.96,155.51,167.118,154.667L167.118,154.667z M166.823,158.361v3.733c0,1.438-1.023,2.892-2.979,2.892
		c-1.133,0-1.964-0.267-2.476-0.79c-0.437-0.438-0.673-1.136-0.7-2.071v-3.786c-0.042-1.2,0.167-1.994,0.66-2.499
		c0.439-0.46,1.364-0.766,2.355-0.779c0.024-0.001,0.048-0.001,0.072-0.001c0.949,0,1.785,0.27,2.247,0.725
		C166.547,156.327,166.823,157.194,166.823,158.361"/>
	<path clip-path="url(#SVGID_5_)" fill="#FFFFFF" d="M204.799,153.458c-0.439,0-0.797,0.356-0.797,0.798v7.872
		c0.007,0.781-0.291,1.534-0.817,2.064c-0.532,0.537-1.265,0.822-2.118,0.822c-2.171,0-3.164-0.894-3.22-2.89v-7.869
		c0-0.447-0.344-0.798-0.782-0.798s-0.782,0.351-0.782,0.798v7.89c0.062,2.869,1.751,4.449,4.755,4.449
		c2.984,0,4.545-2.248,4.545-4.47v-7.869C205.583,153.815,205.231,153.458,204.799,153.458"/>
	<path clip-path="url(#SVGID_5_)" fill="#FFFFFF" d="M190.922,153.994l-0.003-0.004c-0.112-0.313-0.422-0.532-0.753-0.532
		s-0.642,0.219-0.756,0.537l-3.848,11.548c-0.075,0.203-0.064,0.422,0.029,0.613s0.259,0.333,0.462,0.397
		c0.081,0.025,0.163,0.039,0.244,0.039c0.323,0,0.628-0.201,0.757-0.532l1.09-3.257h4.044l1.09,3.257
		c0.135,0.401,0.579,0.626,0.998,0.494c0.206-0.065,0.371-0.207,0.465-0.397c0.094-0.191,0.104-0.41,0.033-0.607L190.922,153.994z
		 M191.671,161.223h-3.008l1.503-4.488L191.671,161.223z"/>
	<path clip-path="url(#SVGID_5_)" fill="#FFFFFF" d="M178.788,165.015h-6.937v-10.759c0-0.44-0.357-0.799-0.797-0.799
		c-0.432,0-0.782,0.358-0.782,0.799v11.542c0,0.439,0.351,0.797,0.782,0.797h7.733c0.433,0,0.784-0.357,0.784-0.797
		C179.572,165.373,179.212,165.015,178.788,165.015"/>
	<path clip-path="url(#SVGID_5_)" fill="#FFFFFF" d="M187.052,154.255c0-0.439-0.353-0.797-0.783-0.797h-7.734
		c-0.431,0-0.781,0.357-0.781,0.797c0,0.425,0.358,0.783,0.781,0.783h3.086v10.759c0,0.447,0.343,0.798,0.781,0.798
		c0.432,0,0.783-0.358,0.783-0.798v-10.759h3.084C186.694,155.039,187.052,154.68,187.052,154.255"/>
	<path clip-path="url(#SVGID_5_)" fill="#FFFFFF" d="M206.84,127.491c-0.702,0-1.273,0.572-1.273,1.274v11.022
		c0.011,1.052-0.39,2.063-1.098,2.779c-0.715,0.722-1.701,1.104-2.854,1.104c-2.973,0-4.273-1.167-4.35-3.888v-11.018
		c0-0.714-0.551-1.274-1.253-1.274s-1.253,0.561-1.253,1.274v11.051c0.089,4.114,2.509,6.382,6.813,6.382
		c4.281,0,6.521-3.228,6.521-6.415v-11.018C208.093,128.063,207.531,127.491,206.84,127.491"/>
	<path clip-path="url(#SVGID_5_)" fill="#FFFFFF" d="M175.964,139.677c0-0.691-0.562-1.254-1.253-1.254
		c-0.714,0-1.273,0.551-1.273,1.254l0.005,0.351c0.012,0.911,0.022,1.57-0.785,2.409c-0.479,0.515-1.383,1.13-2.977,1.13
		c-1.562,0.04-2.789-0.348-3.527-1.122c-0.7-0.702-1.036-1.796-0.997-3.27v-4.203h0.021l-0.021-0.542
		c-0.057-1.465,0.279-2.571,1.007-3.299c0.702-0.739,1.876-1.113,3.529-1.113c1.585,0,2.5,0.618,2.989,1.137
		c0.502,0.531,0.791,1.229,0.757,1.825c-0.019,0.332,0.097,0.653,0.322,0.904c0.229,0.253,0.542,0.4,0.881,0.418
		c0.348,0.029,0.66-0.095,0.906-0.318c0.251-0.228,0.398-0.543,0.415-0.89c0.06-1.285-0.493-2.669-1.478-3.701
		c-1.173-1.227-2.874-1.903-4.833-1.903c-2.325,0-4.112,0.631-5.312,1.873c-1.201,1.249-1.777,2.973-1.712,5.108v5.288
		c0.068,1.869,0.646,3.372,1.717,4.466c1.22,1.239,3.02,1.867,5.347,1.867c2.562,0,4.112-1.196,4.814-1.916
		c1.487-1.575,1.471-3.11,1.459-4.231L175.964,139.677z"/>
	<path clip-path="url(#SVGID_5_)" fill="#FFFFFF" d="M153.234,135.873c-1.855-0.039-3.123-0.196-3.71-0.857
		c-0.359-0.404-0.49-1.044-0.405-1.915c0.37-2.075,1.774-3.041,4.456-3.041c1.569,0.011,2.479,0.625,2.966,1.137
		c0.509,0.534,0.808,1.243,0.781,1.847c-0.018,0.334,0.098,0.656,0.324,0.906c0.229,0.253,0.541,0.4,0.927,0.418
		c0.68,0,1.238-0.53,1.273-1.209c0.061-1.307-0.474-2.654-1.466-3.7c-1.169-1.231-2.873-1.914-4.843-1.925
		c-4.729,0-6.682,2.819-6.917,5.232c-0.175,1.695,0.14,2.971,0.962,3.896c1.027,1.157,2.757,1.692,5.609,1.74
		c1.379,0.026,3.054,0.153,3.773,0.913c0.271,0.287,0.395,0.66,0.377,1.144c-0.062,2.368-1.974,3.212-3.785,3.212
		c-2.645,0-4.048-0.966-4.417-3.024c-0.048-0.327-0.222-0.616-0.488-0.812c-0.274-0.202-0.629-0.285-0.966-0.233
		c-0.681,0.107-1.149,0.76-1.04,1.466c0.586,3.262,3.104,5.132,6.958,5.132c3.64-0.024,6.157-2.303,6.265-5.667
		c0.038-1.182-0.304-2.16-1.015-2.909C157.788,136.499,155.95,135.927,153.234,135.873"/>
	<path clip-path="url(#SVGID_5_)" fill="#FFFFFF" d="M190.787,127.491c-0.702,0-1.273,0.572-1.273,1.274v6.335h-8.281v-6.335
		c0-0.702-0.571-1.274-1.273-1.274c-0.691,0-1.253,0.572-1.253,1.274v16.157c0,0.703,0.562,1.275,1.253,1.275
		c0.702,0,1.273-0.572,1.273-1.275v-7.316h8.281v7.316c0,0.703,0.571,1.275,1.273,1.275c0.689,0,1.253-0.572,1.253-1.275v-16.157
		C192.04,128.063,191.476,127.491,190.787,127.491"/>
	<path clip-path="url(#SVGID_5_)" fill="#FFFFFF" d="M222.894,143.67h-9.554v-14.904c0-0.703-0.571-1.276-1.273-1.276
		c-0.69,0-1.253,0.573-1.253,1.276v16.158c0,0.702,0.562,1.272,1.253,1.272h10.827c0.691,0,1.254-0.57,1.254-1.272
		C224.148,144.232,223.585,143.67,222.894,143.67"/>
	<path clip-path="url(#SVGID_5_)" fill="#FFFFFF" d="M255.003,127.491c-0.703,0-1.274,0.572-1.274,1.274v12.01l-8.498-12.724
		c-0.324-0.47-0.899-0.665-1.4-0.501c-0.535,0.144-0.908,0.644-0.908,1.215v16.157c0,0.703,0.562,1.275,1.252,1.275
		c0.703,0,1.274-0.572,1.274-1.275v-12.01l8.514,12.746c0.355,0.463,0.899,0.644,1.416,0.47c0.533-0.178,0.878-0.652,0.878-1.206
		v-16.157C256.256,128.063,255.693,127.491,255.003,127.491"/>
	<path clip-path="url(#SVGID_5_)" fill="#FFFFFF" d="M238.948,130.018c0.681,0,1.255-0.574,1.255-1.253
		c0-0.703-0.562-1.274-1.255-1.274h-10.826c-0.69,0-1.253,0.571-1.253,1.274v16.159c0,0.701,0.562,1.273,1.253,1.273h10.826
		c0.692,0,1.255-0.572,1.255-1.273c0-0.691-0.562-1.255-1.255-1.255h-9.553v-6.063h9.553c0.692,0,1.255-0.563,1.255-1.253
		c0-0.69-0.562-1.252-1.255-1.252h-9.553v-5.083H238.948z"/>
</g>
<g>
	<defs>
		<path id="SVGID_10_" d="M57.688,22.388c0,12.125,9.012,21.955,20.13,21.955c11.117,0,20.13-9.83,20.13-21.955
			S88.936,0.434,77.818,0.434C66.701,0.434,57.688,10.263,57.688,22.388"/>
	</defs>
	<clipPath id="SVGID_11_">
		<use xlink:href="#SVGID_10_"  overflow="visible"/>
	</clipPath>
	
		<radialGradient id="SVGID_12_" cx="-282.6602" cy="390.8394" r="0.9997" gradientTransform="matrix(21.0619 0 0 -21.0619 6031.1709 8254.2168)" gradientUnits="userSpaceOnUse">
		<stop  offset="0" style="stop-color:#F39100"/>
		<stop  offset="0.005" style="stop-color:#F39100"/>
		<stop  offset="0.4542" style="stop-color:#F28B00"/>
		<stop  offset="1" style="stop-color:#EF7C00"/>
	</radialGradient>
	<rect x="57.688" y="0.434" clip-path="url(#SVGID_11_)" fill="url(#SVGID_12_)" width="40.26" height="43.909"/>
</g>
<g>
	<defs>
		<rect id="SVGID_13_" x="-282.667" y="-204.442" width="841.89" height="595.276"/>
	</defs>
	<clipPath id="SVGID_14_">
		<use xlink:href="#SVGID_13_"  overflow="visible"/>
	</clipPath>
	<g opacity="0.35" clip-path="url(#SVGID_14_)">
		<g>
			<defs>
				<rect id="SVGID_15_" x="69.719" y="3.424" width="25.432" height="26.334"/>
			</defs>
			<clipPath id="SVGID_16_">
				<use xlink:href="#SVGID_15_"  overflow="visible"/>
			</clipPath>
			<path clip-path="url(#SVGID_16_)" fill="#FFFFFF" d="M91.556,9.454c3.731,4.794,4.285,10.091,2.905,17.187
				c-1.215,6.254-3.015,2.013-2.363-3.201c0.893-7.147-1.532-13.606-7.224-16.903c-5.693-3.295-15.155-2.739-15.155-2.739
				S85.174,1.253,91.556,9.454"/>
		</g>
	</g>
</g>
<g>
	<defs>
		<path id="SVGID_17_" d="M21.706,16.168c-8.66,0.768-15.404,7.577-15.182,16.045c0.005,0.183,0.013,0.366,0.024,0.551
			c0.907,14.797,10.334,19.867,18.07,31.213c7.445,10.917,9.941,18.238,9.937,29.296c0,1.144-0.028,2.328-0.079,3.561
			C34.04,107.287,24.39,114.22,14.92,127.159c-6.381,8.717-14.566,20.672-14.549,29.749c0.008,4.394,1.939,8.114,6.926,10.465
			c4.441,2.093,8.348,1.652,12.066-0.253c0-0.001,0-0.001,0.001-0.001c0.024-0.012,0.049-0.025,0.073-0.038
			c0.002-0.001,0.003-0.001,0.005-0.002c0.024-0.012,0.048-0.025,0.072-0.038c0.001,0,0.001,0,0.002-0.001
			c0.148-0.078,0.295-0.157,0.444-0.24c0.003-0.002,0.006-0.003,0.009-0.005c0.021-0.011,0.039-0.021,0.058-0.033
			c0.007-0.004,0.015-0.008,0.022-0.012c0.018-0.01,0.036-0.02,0.054-0.03c0.008-0.005,0.016-0.009,0.025-0.014
			c0.017-0.01,0.034-0.021,0.051-0.03c0.009-0.005,0.019-0.01,0.028-0.016c0.016-0.009,0.033-0.02,0.049-0.028
			c0.01-0.006,0.021-0.012,0.031-0.018c0.015-0.009,0.03-0.019,0.045-0.026c0.012-0.007,0.024-0.014,0.036-0.021
			c0.015-0.01,0.028-0.018,0.043-0.026c0.012-0.007,0.024-0.014,0.037-0.021c0.014-0.009,0.027-0.017,0.041-0.024
			c0.015-0.009,0.029-0.018,0.043-0.026c0.013-0.007,0.023-0.013,0.035-0.021c0.027-0.017,0.053-0.031,0.079-0.047
			c0.003-0.002,0.005-0.003,0.007-0.006c0.025-0.015,0.048-0.028,0.073-0.044c0.007-0.004,0.013-0.008,0.02-0.012
			c0.019-0.012,0.04-0.024,0.06-0.037c0.007-0.005,0.014-0.009,0.022-0.014c0.02-0.012,0.039-0.024,0.058-0.036
			c0.007-0.004,0.015-0.009,0.022-0.013c0.02-0.014,0.04-0.025,0.059-0.038c0.007-0.004,0.014-0.008,0.021-0.013
			c0.02-0.013,0.04-0.025,0.06-0.038c0.007-0.004,0.013-0.009,0.021-0.014c0.021-0.013,0.041-0.025,0.063-0.04
			c0.005-0.003,0.01-0.006,0.015-0.01c0.025-0.016,0.051-0.032,0.076-0.049c0.001,0,0,0,0.001-0.001
			c3.449-2.23,6.785-5.601,10.297-9.22c0.011-0.012,0.022-0.023,0.033-0.034c0.011-0.012,0.022-0.023,0.034-0.035
			c6.784-6.993,14.232-14.896,24.438-17.305l3.018-93.161c-4.365-3.716-8.196-8.559-11.86-13.386l-0.001-0.001
			c-0.069-0.091-0.139-0.183-0.208-0.274c-0.017-0.023-0.036-0.048-0.054-0.071c-0.027-0.037-0.055-0.073-0.082-0.109
			c-0.007-0.009-0.014-0.018-0.021-0.028c-0.038-0.05-0.076-0.1-0.114-0.15c-0.006-0.008-0.011-0.015-0.017-0.022
			c-0.03-0.041-0.063-0.084-0.094-0.124c-1.204-1.593-2.393-3.178-3.579-4.713c-0.004-0.005-0.007-0.009-0.011-0.014
			c-0.036-0.047-0.072-0.093-0.108-0.139c-0.003-0.004-0.006-0.008-0.009-0.012c-0.038-0.049-0.077-0.099-0.115-0.148
			c-0.042-0.055-0.085-0.109-0.127-0.163c-6.058-7.725-13.074-10.832-19.3-10.832C22.792,16.096,22.246,16.121,21.706,16.168"/>
	</defs>
	<clipPath id="SVGID_18_">
		<use xlink:href="#SVGID_17_"  overflow="visible"/>
	</clipPath>
	
		<radialGradient id="SVGID_19_" cx="-282.6665" cy="390.8335" r="1" gradientTransform="matrix(73.9375 0 0 -73.9375 20971.4883 28989.6484)" gradientUnits="userSpaceOnUse">
		<stop  offset="0" style="stop-color:#F39100"/>
		<stop  offset="0.005" style="stop-color:#F39100"/>
		<stop  offset="0.4542" style="stop-color:#F28B00"/>
		<stop  offset="1" style="stop-color:#EF7C00"/>
	</radialGradient>
	<rect x="0.354" y="16.096" clip-path="url(#SVGID_18_)" fill="url(#SVGID_19_)" width="58.69" height="153.37"/>
</g>
<g>
	<defs>
		<path id="SVGID_20_" d="M6.547,32.765c0.907,14.797,10.334,19.867,18.07,31.213c8.215,12.047,10.405,19.714,9.858,32.857
			C34.04,107.287,24.39,114.22,14.92,127.159c-9.469,12.937-22.913,33.005-7.623,40.214c17.464,8.233,26.64-22.714,48.729-27.929
			l3.018-93.162c-6.14-5.228-11.223-12.681-16.273-19.19c-6.086-7.845-13.157-10.995-19.427-10.996
			C13.722,16.094,5.979,23.512,6.547,32.765"/>
	</defs>
	<clipPath id="SVGID_21_">
		<use xlink:href="#SVGID_20_"  overflow="visible"/>
	</clipPath>
	<g opacity="0.35" clip-path="url(#SVGID_21_)">
		<g>
			<defs>
				<rect id="SVGID_22_" x="11.403" y="21.365" width="37.113" height="22.184"/>
			</defs>
			<clipPath id="SVGID_23_">
				<use xlink:href="#SVGID_22_"  overflow="visible"/>
			</clipPath>
			<path clip-path="url(#SVGID_23_)" fill="#FFFFFF" d="M32.831,24.435c9.489,6.601,15.686,19.113,15.686,19.113
				S38.312,30.73,31.225,26.178c-7.087-4.552-15.259-2.831-19.161,0.156C8.483,29.076,20.046,15.542,32.831,24.435"/>
		</g>
	</g>
</g>
<g>
	<defs>
		<rect id="SVGID_24_" x="-282.667" y="-204.442" width="841.89" height="595.276"/>
	</defs>
	<clipPath id="SVGID_25_">
		<use xlink:href="#SVGID_24_"  overflow="visible"/>
	</clipPath>
	<path clip-path="url(#SVGID_25_)" fill="#FFFFFF" d="M119.587,104.933c0.692,0,1.255-0.562,1.255-1.253
		c0-0.703-0.563-1.274-1.255-1.274h-10.826c-0.691,0-1.253,0.571-1.253,1.274v16.157c0,0.702,0.562,1.275,1.253,1.275
		c0.702,0,1.274-0.573,1.274-1.275v-7.317h9.552c0.692,0,1.255-0.562,1.255-1.252c0-0.69-0.563-1.253-1.255-1.253h-9.552v-5.082
		H119.587z"/>
	<path clip-path="url(#SVGID_25_)" fill="#FFFFFF" d="M103.535,102.406c-0.703,0-1.274,0.572-1.274,1.274v11.022
		c0.01,1.052-0.39,2.065-1.098,2.781c-0.714,0.721-1.701,1.103-2.854,1.103c-2.973,0-4.274-1.167-4.35-3.889V103.68
		c0-0.714-0.55-1.274-1.253-1.274c-0.702,0-1.252,0.561-1.252,1.274v11.05c0.089,4.115,2.509,6.383,6.813,6.383
		c4.281,0,6.521-3.229,6.521-6.415V103.68C104.788,102.978,104.226,102.406,103.535,102.406"/>
	<path clip-path="url(#SVGID_25_)" fill="#FFFFFF" d="M54.551,111.213c0.441-0.331,0.794-0.71,1.056-1.132
		c1.062-1.702,0.956-4.001-0.254-5.587c-1.017-1.362-2.725-2.066-5.081-2.089h-5.728c-0.691,0-1.253,0.571-1.253,1.273v16.16
		c0,0.702,0.562,1.273,1.253,1.273h5.832c1.941,0,4.396-0.842,5.509-2.724c1.077-1.835,0.973-4.328-0.25-6.06
		C55.334,111.89,54.975,111.521,54.551,111.213 M45.818,112.52h4.447c1.618,0.02,2.729,0.438,3.302,1.242
		c0.677,0.964,0.736,2.339,0.144,3.346c-0.55,0.926-2.127,1.479-3.335,1.479h-4.558V112.52z M53.465,108.739
		c-0.508,0.829-2.024,1.275-3.193,1.275h-4.454v-5.082h4.447c1.527,0.02,2.563,0.378,3.08,1.065
		C53.928,106.79,53.979,107.915,53.465,108.739"/>
	<path clip-path="url(#SVGID_25_)" fill="#FFFFFF" d="M71.446,104.933c0.68,0,1.254-0.574,1.254-1.253
		c0-0.703-0.563-1.274-1.254-1.274H60.618c-0.69,0-1.252,0.571-1.252,1.274v16.159c0,0.701,0.562,1.273,1.252,1.273h10.828
		c0.691,0,1.254-0.572,1.254-1.273c0-0.69-0.563-1.254-1.254-1.254h-9.554v-6.065h9.554c0.691,0,1.254-0.562,1.254-1.252
		c0-0.69-0.563-1.253-1.254-1.253h-9.554v-5.082H71.446z"/>
	<path clip-path="url(#SVGID_25_)" fill="#FFFFFF" d="M87.963,110.991c0.985-1.855,1.065-4.865-0.501-6.687
		c-1.477-1.753-3.464-1.898-5.542-1.898h-5.247c-0.691,0-1.253,0.571-1.253,1.274v16.157c0,0.703,0.562,1.275,1.253,1.275
		c0.702,0,1.274-0.572,1.274-1.275v-6.105h4.119c1.713,0,3.87,3.263,4.123,6.246c0.072,0.647,0.618,1.135,1.271,1.135h0.09
		l0.028-0.004c0.693-0.074,1.201-0.696,1.132-1.382c-0.23-2.532-1.371-5.032-3.037-6.726
		C86.732,112.522,87.5,111.849,87.963,110.991 M85.725,109.79c-0.521,0.979-2.286,1.417-3.804,1.417h-3.973v-6.273h3.973
		c2.128,0,2.972,0.234,3.62,1.012C86.255,106.765,86.349,108.666,85.725,109.79"/>
	<path clip-path="url(#SVGID_25_)" fill="#FFFFFF" d="M130.242,110.787c-1.854-0.038-3.123-0.195-3.71-0.856
		c-0.359-0.405-0.49-1.045-0.406-1.916c0.371-2.073,1.775-3.04,4.457-3.04c1.569,0.012,2.479,0.625,2.966,1.138
		c0.507,0.534,0.806,1.243,0.78,1.847c-0.018,0.333,0.098,0.653,0.324,0.904c0.229,0.252,0.541,0.4,0.929,0.418
		c0.679,0,1.238-0.53,1.272-1.209c0.061-1.307-0.473-2.654-1.466-3.7c-1.168-1.23-2.873-1.913-4.843-1.924
		c-4.728,0-6.681,2.819-6.916,5.233c-0.175,1.694,0.139,2.967,0.961,3.894c1.026,1.156,2.757,1.693,5.611,1.742
		c1.378,0.025,3.051,0.152,3.77,0.912c0.273,0.287,0.396,0.66,0.378,1.145c-0.06,2.369-1.972,3.213-3.783,3.213
		c-2.645,0-4.05-0.966-4.417-3.026c-0.049-0.329-0.223-0.617-0.491-0.813c-0.273-0.201-0.629-0.281-0.964-0.231
		c-0.324,0.052-0.611,0.229-0.809,0.501c-0.2,0.276-0.285,0.624-0.23,0.963c0.584,3.263,3.104,5.134,6.957,5.134
		c3.639-0.025,6.156-2.304,6.264-5.668c0.037-1.181-0.304-2.159-1.015-2.908C134.797,111.414,132.958,110.841,130.242,110.787"/>
	<path clip-path="url(#SVGID_25_)" fill="#FFFFFF" d="M223.545,102.406c-0.702,0-1.273,0.572-1.273,1.274v12.01l-8.499-12.725
		c-0.326-0.471-0.9-0.668-1.401-0.5c-0.534,0.145-0.907,0.645-0.907,1.215v16.158c0,0.703,0.562,1.274,1.253,1.274
		c0.702,0,1.273-0.571,1.273-1.274v-12.01l8.514,12.744c0.349,0.456,0.902,0.644,1.416,0.47c0.534-0.178,0.879-0.652,0.879-1.204
		V103.68C224.799,102.978,224.237,102.406,223.545,102.406"/>
	<path clip-path="url(#SVGID_25_)" fill="#FFFFFF" d="M232.444,102.406h-3.673c-0.69,0-1.253,0.571-1.253,1.274v16.158
		c0,0.703,0.562,1.274,1.253,1.274h3.7c2.44,0,4.408-0.74,5.849-2.199c1.669-1.672,2.493-4.218,2.449-7.571
		c-0.043-3.045-0.906-5.385-2.566-6.959C236.751,103.025,234.781,102.337,232.444,102.406 M238.243,111.359
		c0.04,2.648-0.535,4.598-1.71,5.792c-0.934,0.933-2.253,1.416-3.916,1.436h-2.571v-13.653l2.443-0.001
		c1.68-0.043,3.021,0.372,3.971,1.278C237.623,107.315,238.221,109.045,238.243,111.359"/>
	<path clip-path="url(#SVGID_25_)" fill="#FFFFFF" d="M207.49,104.933c0.681,0,1.255-0.574,1.255-1.253
		c0-0.703-0.562-1.274-1.255-1.274h-10.827c-0.69,0-1.252,0.571-1.252,1.274v16.159c0,0.701,0.562,1.273,1.252,1.273h10.827
		c0.692,0,1.255-0.572,1.255-1.273c0-0.69-0.562-1.254-1.255-1.254h-9.553v-6.065h9.553c0.692,0,1.255-0.562,1.255-1.252
		c0-0.69-0.562-1.253-1.255-1.253h-9.553v-5.082H207.49z"/>
	<path clip-path="url(#SVGID_25_)" fill="#FFFFFF" d="M255.59,112.52c0.69,0,1.254-0.562,1.254-1.252
		c0-0.69-0.563-1.253-1.254-1.253h-9.554v-5.082h9.554c0.68,0,1.254-0.574,1.254-1.253c0-0.703-0.563-1.274-1.254-1.274h-10.827
		c-0.691,0-1.253,0.571-1.253,1.274v16.158c0,0.702,0.562,1.274,1.253,1.274h10.827c0.69,0,1.254-0.572,1.254-1.274
		c0-0.689-0.563-1.253-1.254-1.253h-9.554v-6.065H255.59z"/>
	<path clip-path="url(#SVGID_25_)" fill="#FFFFFF" d="M159.369,104.933c0.703,0,1.274-0.562,1.274-1.253
		c0-0.703-0.571-1.274-1.274-1.274h-2.987c-0.69,0-1.253,0.571-1.253,1.274c0,0.679,0.574,1.253,1.253,1.253h0.252v13.652h-0.252
		c-0.69,0-1.253,0.563-1.253,1.254c0,0.701,0.562,1.273,1.253,1.273h2.987c0.703,0,1.274-0.572,1.274-1.273
		c0-0.69-0.571-1.254-1.274-1.254h-0.23v-13.652H159.369z"/>
	<path clip-path="url(#SVGID_25_)" fill="#FFFFFF" d="M150.877,111.213c0.439-0.331,0.793-0.711,1.055-1.133
		c1.062-1.702,0.956-4.001-0.254-5.587c-1.017-1.361-2.725-2.064-5.08-2.088h-5.729c-0.69,0-1.253,0.571-1.253,1.274v16.159
		c0,0.701,0.562,1.273,1.253,1.273h5.832c1.939,0,4.396-0.841,5.511-2.723c1.074-1.835,0.971-4.329-0.251-6.062
		C151.659,111.89,151.3,111.521,150.877,111.213 M150.039,117.106c-0.551,0.927-2.129,1.479-3.337,1.479h-4.559v-6.065h4.448
		c1.618,0.019,2.729,0.438,3.301,1.243C150.57,114.725,150.629,116.1,150.039,117.106 M142.143,110.015v-5.082h4.448
		c1.525,0.019,2.561,0.377,3.078,1.063c0.585,0.793,0.636,1.918,0.121,2.742c-0.508,0.829-2.023,1.276-3.192,1.276H142.143z"/>
	<path clip-path="url(#SVGID_25_)" fill="#FFFFFF" d="M184.343,102.405h-3.672c-0.69,0-1.253,0.572-1.253,1.275v16.159
		c0,0.702,0.562,1.272,1.253,1.272h3.699c2.44,0,4.409-0.739,5.85-2.198c1.669-1.674,2.494-4.221,2.448-7.57
		c-0.044-3.047-0.906-5.387-2.565-6.959C188.651,103.024,186.673,102.338,184.343,102.405 M188.36,106.21
		c1.163,1.104,1.763,2.836,1.783,5.147c0.039,2.651-0.536,4.6-1.71,5.792c-0.934,0.934-2.253,1.416-3.916,1.437h-2.572v-13.653
		l2.443-0.001C186.066,104.889,187.411,105.305,188.36,106.21"/>
	<path clip-path="url(#SVGID_25_)" fill="#FFFFFF" d="M175.445,118.586h-9.554v-14.905c0-0.703-0.571-1.276-1.274-1.276
		c-0.691,0-1.253,0.573-1.253,1.276v16.158c0,0.702,0.562,1.272,1.253,1.272h10.828c0.689,0,1.253-0.57,1.253-1.272
		C176.698,119.148,176.134,118.586,175.445,118.586"/>
</g>
<rect x="-282.667" y="-204.442" fill="none" width="841.89" height="595.276"/>
</svg>
